<?xml version="1.0" encoding="utf-8" standalone="no"?>
<!DOCTYPE svg PUBLIC "-//W3C//DTD SVG 1.1//EN"
  "http://www.w3.org/Graphics/SVG/1.1/DTD/svg11.dtd">
<svg xmlns:xlink="http://www.w3.org/1999/xlink" width="854.04175pt" height="564.795286pt" viewBox="0 0 854.04175 564.795286" xmlns="http://www.w3.org/2000/svg" version="1.1">
 <metadata>
  <rdf:RDF xmlns:dc="http://purl.org/dc/elements/1.1/" xmlns:cc="http://creativecommons.org/ns#" xmlns:rdf="http://www.w3.org/1999/02/22-rdf-syntax-ns#">
   <cc:Work>
    <dc:type rdf:resource="http://purl.org/dc/dcmitype/StillImage"/>
    <dc:date>2025-01-09T16:54:17.422254</dc:date>
    <dc:format>image/svg+xml</dc:format>
    <dc:creator>
     <cc:Agent>
      <dc:title>Matplotlib v3.10.0, https://matplotlib.org/</dc:title>
     </cc:Agent>
    </dc:creator>
   </cc:Work>
  </rdf:RDF>
 </metadata>
 <defs>
  <style type="text/css">*{stroke-linejoin: round; stroke-linecap: butt}</style>
 </defs>
 <g id="figure_1">
  <g id="patch_1">
   <path d="M 0 564.795286 
L 854.04175 564.795286 
L 854.04175 0 
L 0 0 
z
" style="fill: #ffffff"/>
  </g>
  <g id="axes_1">
   <g id="patch_2">
    <path d="M 44.216094 502.663281 
L 740.626094 502.663281 
L 740.626094 21.935625 
L 44.216094 21.935625 
z
" style="fill: #ffffff"/>
   </g>
   <g id="matplotlib.axis_1">
    <g id="xtick_1">
     <g id="text_1">
      <!-- item1 -->
      <g style="fill: #262626" transform="translate(68.372447 536.749605) rotate(-45) scale(0.11 -0.11)">
       <defs>
        <path id="ArialMT-69" d="M 425 3934 
L 425 4581 
L 988 4581 
L 988 3934 
L 425 3934 
z
M 425 0 
L 425 3319 
L 988 3319 
L 988 0 
L 425 0 
z
" transform="scale(0.015625)"/>
        <path id="ArialMT-74" d="M 1650 503 
L 1731 6 
Q 1494 -44 1306 -44 
Q 1000 -44 831 53 
Q 663 150 594 308 
Q 525 466 525 972 
L 525 2881 
L 113 2881 
L 113 3319 
L 525 3319 
L 525 4141 
L 1084 4478 
L 1084 3319 
L 1650 3319 
L 1650 2881 
L 1084 2881 
L 1084 941 
Q 1084 700 1114 631 
Q 1144 563 1211 522 
Q 1278 481 1403 481 
Q 1497 481 1650 503 
z
" transform="scale(0.015625)"/>
        <path id="ArialMT-65" d="M 2694 1069 
L 3275 997 
Q 3138 488 2766 206 
Q 2394 -75 1816 -75 
Q 1088 -75 661 373 
Q 234 822 234 1631 
Q 234 2469 665 2931 
Q 1097 3394 1784 3394 
Q 2450 3394 2872 2941 
Q 3294 2488 3294 1666 
Q 3294 1616 3291 1516 
L 816 1516 
Q 847 969 1125 678 
Q 1403 388 1819 388 
Q 2128 388 2347 550 
Q 2566 713 2694 1069 
z
M 847 1978 
L 2700 1978 
Q 2663 2397 2488 2606 
Q 2219 2931 1791 2931 
Q 1403 2931 1139 2672 
Q 875 2413 847 1978 
z
" transform="scale(0.015625)"/>
        <path id="ArialMT-6d" d="M 422 0 
L 422 3319 
L 925 3319 
L 925 2853 
Q 1081 3097 1340 3245 
Q 1600 3394 1931 3394 
Q 2300 3394 2536 3241 
Q 2772 3088 2869 2813 
Q 3263 3394 3894 3394 
Q 4388 3394 4653 3120 
Q 4919 2847 4919 2278 
L 4919 0 
L 4359 0 
L 4359 2091 
Q 4359 2428 4304 2576 
Q 4250 2725 4106 2815 
Q 3963 2906 3769 2906 
Q 3419 2906 3187 2673 
Q 2956 2441 2956 1928 
L 2956 0 
L 2394 0 
L 2394 2156 
Q 2394 2531 2256 2718 
Q 2119 2906 1806 2906 
Q 1569 2906 1367 2781 
Q 1166 2656 1075 2415 
Q 984 2175 984 1722 
L 984 0 
L 422 0 
z
" transform="scale(0.015625)"/>
        <path id="ArialMT-31" d="M 2384 0 
L 1822 0 
L 1822 3584 
Q 1619 3391 1289 3197 
Q 959 3003 697 2906 
L 697 3450 
Q 1169 3672 1522 3987 
Q 1875 4303 2022 4600 
L 2384 4600 
L 2384 0 
z
" transform="scale(0.015625)"/>
       </defs>
       <use xlink:href="#ArialMT-69"/>
       <use xlink:href="#ArialMT-74" transform="translate(22.216797 0)"/>
       <use xlink:href="#ArialMT-65" transform="translate(50 0)"/>
       <use xlink:href="#ArialMT-6d" transform="translate(105.615234 0)"/>
       <use xlink:href="#ArialMT-31" transform="translate(188.916016 0)"/>
      </g>
     </g>
    </g>
    <g id="xtick_2">
     <g id="text_2">
      <!-- item2 -->
      <g style="fill: #262626" transform="translate(121.130781 536.749605) rotate(-45) scale(0.11 -0.11)">
       <defs>
        <path id="ArialMT-32" d="M 3222 541 
L 3222 0 
L 194 0 
Q 188 203 259 391 
Q 375 700 629 1000 
Q 884 1300 1366 1694 
Q 2113 2306 2375 2664 
Q 2638 3022 2638 3341 
Q 2638 3675 2398 3904 
Q 2159 4134 1775 4134 
Q 1369 4134 1125 3890 
Q 881 3647 878 3216 
L 300 3275 
Q 359 3922 746 4261 
Q 1134 4600 1788 4600 
Q 2447 4600 2831 4234 
Q 3216 3869 3216 3328 
Q 3216 3053 3103 2787 
Q 2991 2522 2730 2228 
Q 2469 1934 1863 1422 
Q 1356 997 1212 845 
Q 1069 694 975 541 
L 3222 541 
z
" transform="scale(0.015625)"/>
       </defs>
       <use xlink:href="#ArialMT-69"/>
       <use xlink:href="#ArialMT-74" transform="translate(22.216797 0)"/>
       <use xlink:href="#ArialMT-65" transform="translate(50 0)"/>
       <use xlink:href="#ArialMT-6d" transform="translate(105.615234 0)"/>
       <use xlink:href="#ArialMT-32" transform="translate(188.916016 0)"/>
      </g>
     </g>
    </g>
    <g id="xtick_3">
     <g id="text_3">
      <!-- item3 -->
      <g style="fill: #262626" transform="translate(173.889114 536.749605) rotate(-45) scale(0.11 -0.11)">
       <defs>
        <path id="ArialMT-33" d="M 269 1209 
L 831 1284 
Q 928 806 1161 595 
Q 1394 384 1728 384 
Q 2125 384 2398 659 
Q 2672 934 2672 1341 
Q 2672 1728 2419 1979 
Q 2166 2231 1775 2231 
Q 1616 2231 1378 2169 
L 1441 2663 
Q 1497 2656 1531 2656 
Q 1891 2656 2178 2843 
Q 2466 3031 2466 3422 
Q 2466 3731 2256 3934 
Q 2047 4138 1716 4138 
Q 1388 4138 1169 3931 
Q 950 3725 888 3313 
L 325 3413 
Q 428 3978 793 4289 
Q 1159 4600 1703 4600 
Q 2078 4600 2393 4439 
Q 2709 4278 2876 4000 
Q 3044 3722 3044 3409 
Q 3044 3113 2884 2869 
Q 2725 2625 2413 2481 
Q 2819 2388 3044 2092 
Q 3269 1797 3269 1353 
Q 3269 753 2831 336 
Q 2394 -81 1725 -81 
Q 1122 -81 723 278 
Q 325 638 269 1209 
z
" transform="scale(0.015625)"/>
       </defs>
       <use xlink:href="#ArialMT-69"/>
       <use xlink:href="#ArialMT-74" transform="translate(22.216797 0)"/>
       <use xlink:href="#ArialMT-65" transform="translate(50 0)"/>
       <use xlink:href="#ArialMT-6d" transform="translate(105.615234 0)"/>
       <use xlink:href="#ArialMT-33" transform="translate(188.916016 0)"/>
      </g>
     </g>
    </g>
    <g id="xtick_4">
     <g id="text_4">
      <!-- item4 -->
      <g style="fill: #262626" transform="translate(226.647447 536.749605) rotate(-45) scale(0.11 -0.11)">
       <defs>
        <path id="ArialMT-34" d="M 2069 0 
L 2069 1097 
L 81 1097 
L 81 1613 
L 2172 4581 
L 2631 4581 
L 2631 1613 
L 3250 1613 
L 3250 1097 
L 2631 1097 
L 2631 0 
L 2069 0 
z
M 2069 1613 
L 2069 3678 
L 634 1613 
L 2069 1613 
z
" transform="scale(0.015625)"/>
       </defs>
       <use xlink:href="#ArialMT-69"/>
       <use xlink:href="#ArialMT-74" transform="translate(22.216797 0)"/>
       <use xlink:href="#ArialMT-65" transform="translate(50 0)"/>
       <use xlink:href="#ArialMT-6d" transform="translate(105.615234 0)"/>
       <use xlink:href="#ArialMT-34" transform="translate(188.916016 0)"/>
      </g>
     </g>
    </g>
    <g id="xtick_5">
     <g id="text_5">
      <!-- item5 -->
      <g style="fill: #262626" transform="translate(279.405781 536.749605) rotate(-45) scale(0.11 -0.11)">
       <defs>
        <path id="ArialMT-35" d="M 266 1200 
L 856 1250 
Q 922 819 1161 601 
Q 1400 384 1738 384 
Q 2144 384 2425 690 
Q 2706 997 2706 1503 
Q 2706 1984 2436 2262 
Q 2166 2541 1728 2541 
Q 1456 2541 1237 2417 
Q 1019 2294 894 2097 
L 366 2166 
L 809 4519 
L 3088 4519 
L 3088 3981 
L 1259 3981 
L 1013 2750 
Q 1425 3038 1878 3038 
Q 2478 3038 2890 2622 
Q 3303 2206 3303 1553 
Q 3303 931 2941 478 
Q 2500 -78 1738 -78 
Q 1113 -78 717 272 
Q 322 622 266 1200 
z
" transform="scale(0.015625)"/>
       </defs>
       <use xlink:href="#ArialMT-69"/>
       <use xlink:href="#ArialMT-74" transform="translate(22.216797 0)"/>
       <use xlink:href="#ArialMT-65" transform="translate(50 0)"/>
       <use xlink:href="#ArialMT-6d" transform="translate(105.615234 0)"/>
       <use xlink:href="#ArialMT-35" transform="translate(188.916016 0)"/>
      </g>
     </g>
    </g>
    <g id="xtick_6">
     <g id="text_6">
      <!-- item6 -->
      <g style="fill: #262626" transform="translate(332.164114 536.749605) rotate(-45) scale(0.11 -0.11)">
       <defs>
        <path id="ArialMT-36" d="M 3184 3459 
L 2625 3416 
Q 2550 3747 2413 3897 
Q 2184 4138 1850 4138 
Q 1581 4138 1378 3988 
Q 1113 3794 959 3422 
Q 806 3050 800 2363 
Q 1003 2672 1297 2822 
Q 1591 2972 1913 2972 
Q 2475 2972 2870 2558 
Q 3266 2144 3266 1488 
Q 3266 1056 3080 686 
Q 2894 316 2569 119 
Q 2244 -78 1831 -78 
Q 1128 -78 684 439 
Q 241 956 241 2144 
Q 241 3472 731 4075 
Q 1159 4600 1884 4600 
Q 2425 4600 2770 4297 
Q 3116 3994 3184 3459 
z
M 888 1484 
Q 888 1194 1011 928 
Q 1134 663 1356 523 
Q 1578 384 1822 384 
Q 2178 384 2434 671 
Q 2691 959 2691 1453 
Q 2691 1928 2437 2201 
Q 2184 2475 1800 2475 
Q 1419 2475 1153 2201 
Q 888 1928 888 1484 
z
" transform="scale(0.015625)"/>
       </defs>
       <use xlink:href="#ArialMT-69"/>
       <use xlink:href="#ArialMT-74" transform="translate(22.216797 0)"/>
       <use xlink:href="#ArialMT-65" transform="translate(50 0)"/>
       <use xlink:href="#ArialMT-6d" transform="translate(105.615234 0)"/>
       <use xlink:href="#ArialMT-36" transform="translate(188.916016 0)"/>
      </g>
     </g>
    </g>
    <g id="xtick_7">
     <g id="text_7">
      <!-- item7 -->
      <g style="fill: #262626" transform="translate(384.922447 536.749605) rotate(-45) scale(0.11 -0.11)">
       <defs>
        <path id="ArialMT-37" d="M 303 3981 
L 303 4522 
L 3269 4522 
L 3269 4084 
Q 2831 3619 2401 2847 
Q 1972 2075 1738 1259 
Q 1569 684 1522 0 
L 944 0 
Q 953 541 1156 1306 
Q 1359 2072 1739 2783 
Q 2119 3494 2547 3981 
L 303 3981 
z
" transform="scale(0.015625)"/>
       </defs>
       <use xlink:href="#ArialMT-69"/>
       <use xlink:href="#ArialMT-74" transform="translate(22.216797 0)"/>
       <use xlink:href="#ArialMT-65" transform="translate(50 0)"/>
       <use xlink:href="#ArialMT-6d" transform="translate(105.615234 0)"/>
       <use xlink:href="#ArialMT-37" transform="translate(188.916016 0)"/>
      </g>
     </g>
    </g>
    <g id="xtick_8">
     <g id="text_8">
      <!-- item8 -->
      <g style="fill: #262626" transform="translate(437.680781 536.749605) rotate(-45) scale(0.11 -0.11)">
       <defs>
        <path id="ArialMT-38" d="M 1131 2484 
Q 781 2613 612 2850 
Q 444 3088 444 3419 
Q 444 3919 803 4259 
Q 1163 4600 1759 4600 
Q 2359 4600 2725 4251 
Q 3091 3903 3091 3403 
Q 3091 3084 2923 2848 
Q 2756 2613 2416 2484 
Q 2838 2347 3058 2040 
Q 3278 1734 3278 1309 
Q 3278 722 2862 322 
Q 2447 -78 1769 -78 
Q 1091 -78 675 323 
Q 259 725 259 1325 
Q 259 1772 486 2073 
Q 713 2375 1131 2484 
z
M 1019 3438 
Q 1019 3113 1228 2906 
Q 1438 2700 1772 2700 
Q 2097 2700 2305 2904 
Q 2513 3109 2513 3406 
Q 2513 3716 2298 3927 
Q 2084 4138 1766 4138 
Q 1444 4138 1231 3931 
Q 1019 3725 1019 3438 
z
M 838 1322 
Q 838 1081 952 856 
Q 1066 631 1291 507 
Q 1516 384 1775 384 
Q 2178 384 2440 643 
Q 2703 903 2703 1303 
Q 2703 1709 2433 1975 
Q 2163 2241 1756 2241 
Q 1359 2241 1098 1978 
Q 838 1716 838 1322 
z
" transform="scale(0.015625)"/>
       </defs>
       <use xlink:href="#ArialMT-69"/>
       <use xlink:href="#ArialMT-74" transform="translate(22.216797 0)"/>
       <use xlink:href="#ArialMT-65" transform="translate(50 0)"/>
       <use xlink:href="#ArialMT-6d" transform="translate(105.615234 0)"/>
       <use xlink:href="#ArialMT-38" transform="translate(188.916016 0)"/>
      </g>
     </g>
    </g>
    <g id="xtick_9">
     <g id="text_9">
      <!-- item9 -->
      <g style="fill: #262626" transform="translate(490.439114 536.749605) rotate(-45) scale(0.11 -0.11)">
       <defs>
        <path id="ArialMT-39" d="M 350 1059 
L 891 1109 
Q 959 728 1153 556 
Q 1347 384 1650 384 
Q 1909 384 2104 503 
Q 2300 622 2425 820 
Q 2550 1019 2634 1356 
Q 2719 1694 2719 2044 
Q 2719 2081 2716 2156 
Q 2547 1888 2255 1720 
Q 1963 1553 1622 1553 
Q 1053 1553 659 1965 
Q 266 2378 266 3053 
Q 266 3750 677 4175 
Q 1088 4600 1706 4600 
Q 2153 4600 2523 4359 
Q 2894 4119 3086 3673 
Q 3278 3228 3278 2384 
Q 3278 1506 3087 986 
Q 2897 466 2520 194 
Q 2144 -78 1638 -78 
Q 1100 -78 759 220 
Q 419 519 350 1059 
z
M 2653 3081 
Q 2653 3566 2395 3850 
Q 2138 4134 1775 4134 
Q 1400 4134 1122 3828 
Q 844 3522 844 3034 
Q 844 2597 1108 2323 
Q 1372 2050 1759 2050 
Q 2150 2050 2401 2323 
Q 2653 2597 2653 3081 
z
" transform="scale(0.015625)"/>
       </defs>
       <use xlink:href="#ArialMT-69"/>
       <use xlink:href="#ArialMT-74" transform="translate(22.216797 0)"/>
       <use xlink:href="#ArialMT-65" transform="translate(50 0)"/>
       <use xlink:href="#ArialMT-6d" transform="translate(105.615234 0)"/>
       <use xlink:href="#ArialMT-39" transform="translate(188.916016 0)"/>
      </g>
     </g>
    </g>
    <g id="xtick_10">
     <g id="text_10">
      <!-- item10 -->
      <g style="fill: #262626" transform="translate(541.03475 541.074999) rotate(-45) scale(0.11 -0.11)">
       <defs>
        <path id="ArialMT-30" d="M 266 2259 
Q 266 3072 433 3567 
Q 600 4063 929 4331 
Q 1259 4600 1759 4600 
Q 2128 4600 2406 4451 
Q 2684 4303 2865 4023 
Q 3047 3744 3150 3342 
Q 3253 2941 3253 2259 
Q 3253 1453 3087 958 
Q 2922 463 2592 192 
Q 2263 -78 1759 -78 
Q 1097 -78 719 397 
Q 266 969 266 2259 
z
M 844 2259 
Q 844 1131 1108 757 
Q 1372 384 1759 384 
Q 2147 384 2411 759 
Q 2675 1134 2675 2259 
Q 2675 3391 2411 3762 
Q 2147 4134 1753 4134 
Q 1366 4134 1134 3806 
Q 844 3388 844 2259 
z
" transform="scale(0.015625)"/>
       </defs>
       <use xlink:href="#ArialMT-69"/>
       <use xlink:href="#ArialMT-74" transform="translate(22.216797 0)"/>
       <use xlink:href="#ArialMT-65" transform="translate(50 0)"/>
       <use xlink:href="#ArialMT-6d" transform="translate(105.615234 0)"/>
       <use xlink:href="#ArialMT-31" transform="translate(188.916016 0)"/>
       <use xlink:href="#ArialMT-30" transform="translate(244.53125 0)"/>
      </g>
     </g>
    </g>
    <g id="xtick_11">
     <g id="text_11">
      <!-- item11 -->
      <g style="fill: #262626" transform="translate(594.079904 540.501359) rotate(-45) scale(0.11 -0.11)">
       <use xlink:href="#ArialMT-69"/>
       <use xlink:href="#ArialMT-74" transform="translate(22.216797 0)"/>
       <use xlink:href="#ArialMT-65" transform="translate(50 0)"/>
       <use xlink:href="#ArialMT-6d" transform="translate(105.615234 0)"/>
       <use xlink:href="#ArialMT-31" transform="translate(188.916016 0)"/>
       <use xlink:href="#ArialMT-31" transform="translate(237.15625 0)"/>
      </g>
     </g>
    </g>
    <g id="xtick_12">
     <g id="text_12">
      <!-- item12 -->
      <g style="fill: #262626" transform="translate(646.551417 541.074999) rotate(-45) scale(0.11 -0.11)">
       <use xlink:href="#ArialMT-69"/>
       <use xlink:href="#ArialMT-74" transform="translate(22.216797 0)"/>
       <use xlink:href="#ArialMT-65" transform="translate(50 0)"/>
       <use xlink:href="#ArialMT-6d" transform="translate(105.615234 0)"/>
       <use xlink:href="#ArialMT-31" transform="translate(188.916016 0)"/>
       <use xlink:href="#ArialMT-32" transform="translate(244.53125 0)"/>
      </g>
     </g>
    </g>
    <g id="xtick_13">
     <g id="text_13">
      <!-- item13 -->
      <g style="fill: #262626" transform="translate(699.30975 541.074999) rotate(-45) scale(0.11 -0.11)">
       <use xlink:href="#ArialMT-69"/>
       <use xlink:href="#ArialMT-74" transform="translate(22.216797 0)"/>
       <use xlink:href="#ArialMT-65" transform="translate(50 0)"/>
       <use xlink:href="#ArialMT-6d" transform="translate(105.615234 0)"/>
       <use xlink:href="#ArialMT-31" transform="translate(188.916016 0)"/>
       <use xlink:href="#ArialMT-33" transform="translate(244.53125 0)"/>
      </g>
     </g>
    </g>
    <g id="text_14">
     <!-- Items -->
     <g style="fill: #262626" transform="translate(377.752969 555.210286) scale(0.12 -0.12)">
      <defs>
       <path id="ArialMT-49" d="M 597 0 
L 597 4581 
L 1203 4581 
L 1203 0 
L 597 0 
z
" transform="scale(0.015625)"/>
       <path id="ArialMT-73" d="M 197 991 
L 753 1078 
Q 800 744 1014 566 
Q 1228 388 1613 388 
Q 2000 388 2187 545 
Q 2375 703 2375 916 
Q 2375 1106 2209 1216 
Q 2094 1291 1634 1406 
Q 1016 1563 777 1677 
Q 538 1791 414 1992 
Q 291 2194 291 2438 
Q 291 2659 392 2848 
Q 494 3038 669 3163 
Q 800 3259 1026 3326 
Q 1253 3394 1513 3394 
Q 1903 3394 2198 3281 
Q 2494 3169 2634 2976 
Q 2775 2784 2828 2463 
L 2278 2388 
Q 2241 2644 2061 2787 
Q 1881 2931 1553 2931 
Q 1166 2931 1000 2803 
Q 834 2675 834 2503 
Q 834 2394 903 2306 
Q 972 2216 1119 2156 
Q 1203 2125 1616 2013 
Q 2213 1853 2448 1751 
Q 2684 1650 2818 1456 
Q 2953 1263 2953 975 
Q 2953 694 2789 445 
Q 2625 197 2315 61 
Q 2006 -75 1616 -75 
Q 969 -75 630 194 
Q 291 463 197 991 
z
" transform="scale(0.015625)"/>
      </defs>
      <use xlink:href="#ArialMT-49"/>
      <use xlink:href="#ArialMT-74" transform="translate(27.783203 0)"/>
      <use xlink:href="#ArialMT-65" transform="translate(55.566406 0)"/>
      <use xlink:href="#ArialMT-6d" transform="translate(111.181641 0)"/>
      <use xlink:href="#ArialMT-73" transform="translate(194.482422 0)"/>
     </g>
    </g>
   </g>
   <g id="matplotlib.axis_2">
    <g id="ytick_1">
     <g id="text_15">
      <!-- −2 -->
      <g style="fill: #262626" transform="translate(22.174375 505.09155) scale(0.11 -0.11)">
       <defs>
        <path id="ArialMT-2212" d="M 3381 1997 
L 356 1997 
L 356 2522 
L 3381 2522 
L 3381 1997 
z
" transform="scale(0.015625)"/>
       </defs>
       <use xlink:href="#ArialMT-2212"/>
       <use xlink:href="#ArialMT-32" transform="translate(58.398438 0)"/>
      </g>
     </g>
    </g>
    <g id="ytick_2">
     <g id="text_16">
      <!-- −1 -->
      <g style="fill: #262626" transform="translate(22.174375 422.001037) scale(0.11 -0.11)">
       <use xlink:href="#ArialMT-2212"/>
       <use xlink:href="#ArialMT-31" transform="translate(58.398438 0)"/>
      </g>
     </g>
    </g>
    <g id="ytick_3">
     <g id="text_17">
      <!-- 0 -->
      <g style="fill: #262626" transform="translate(28.599063 338.910524) scale(0.11 -0.11)">
       <use xlink:href="#ArialMT-30"/>
      </g>
     </g>
    </g>
    <g id="ytick_4">
     <g id="text_18">
      <!-- 1 -->
      <g style="fill: #262626" transform="translate(28.599063 255.820011) scale(0.11 -0.11)">
       <use xlink:href="#ArialMT-31"/>
      </g>
     </g>
    </g>
    <g id="ytick_5">
     <g id="text_19">
      <!-- 2 -->
      <g style="fill: #262626" transform="translate(28.599063 172.729499) scale(0.11 -0.11)">
       <use xlink:href="#ArialMT-32"/>
      </g>
     </g>
    </g>
    <g id="ytick_6">
     <g id="text_20">
      <!-- 3 -->
      <g style="fill: #262626" transform="translate(28.599063 89.638986) scale(0.11 -0.11)">
       <use xlink:href="#ArialMT-33"/>
      </g>
     </g>
    </g>
    <g id="text_21">
     <!-- Scaled Scores -->
     <g style="fill: #262626" transform="translate(15.789375 300.984453) rotate(-90) scale(0.12 -0.12)">
      <defs>
       <path id="ArialMT-53" d="M 288 1472 
L 859 1522 
Q 900 1178 1048 958 
Q 1197 738 1509 602 
Q 1822 466 2213 466 
Q 2559 466 2825 569 
Q 3091 672 3220 851 
Q 3350 1031 3350 1244 
Q 3350 1459 3225 1620 
Q 3100 1781 2813 1891 
Q 2628 1963 1997 2114 
Q 1366 2266 1113 2400 
Q 784 2572 623 2826 
Q 463 3081 463 3397 
Q 463 3744 659 4045 
Q 856 4347 1234 4503 
Q 1613 4659 2075 4659 
Q 2584 4659 2973 4495 
Q 3363 4331 3572 4012 
Q 3781 3694 3797 3291 
L 3216 3247 
Q 3169 3681 2898 3903 
Q 2628 4125 2100 4125 
Q 1550 4125 1298 3923 
Q 1047 3722 1047 3438 
Q 1047 3191 1225 3031 
Q 1400 2872 2139 2705 
Q 2878 2538 3153 2413 
Q 3553 2228 3743 1945 
Q 3934 1663 3934 1294 
Q 3934 928 3725 604 
Q 3516 281 3123 101 
Q 2731 -78 2241 -78 
Q 1619 -78 1198 103 
Q 778 284 539 648 
Q 300 1013 288 1472 
z
" transform="scale(0.015625)"/>
       <path id="ArialMT-63" d="M 2588 1216 
L 3141 1144 
Q 3050 572 2676 248 
Q 2303 -75 1759 -75 
Q 1078 -75 664 370 
Q 250 816 250 1647 
Q 250 2184 428 2587 
Q 606 2991 970 3192 
Q 1334 3394 1763 3394 
Q 2303 3394 2647 3120 
Q 2991 2847 3088 2344 
L 2541 2259 
Q 2463 2594 2264 2762 
Q 2066 2931 1784 2931 
Q 1359 2931 1093 2626 
Q 828 2322 828 1663 
Q 828 994 1084 691 
Q 1341 388 1753 388 
Q 2084 388 2306 591 
Q 2528 794 2588 1216 
z
" transform="scale(0.015625)"/>
       <path id="ArialMT-61" d="M 2588 409 
Q 2275 144 1986 34 
Q 1697 -75 1366 -75 
Q 819 -75 525 192 
Q 231 459 231 875 
Q 231 1119 342 1320 
Q 453 1522 633 1644 
Q 813 1766 1038 1828 
Q 1203 1872 1538 1913 
Q 2219 1994 2541 2106 
Q 2544 2222 2544 2253 
Q 2544 2597 2384 2738 
Q 2169 2928 1744 2928 
Q 1347 2928 1158 2789 
Q 969 2650 878 2297 
L 328 2372 
Q 403 2725 575 2942 
Q 747 3159 1072 3276 
Q 1397 3394 1825 3394 
Q 2250 3394 2515 3294 
Q 2781 3194 2906 3042 
Q 3031 2891 3081 2659 
Q 3109 2516 3109 2141 
L 3109 1391 
Q 3109 606 3145 398 
Q 3181 191 3288 0 
L 2700 0 
Q 2613 175 2588 409 
z
M 2541 1666 
Q 2234 1541 1622 1453 
Q 1275 1403 1131 1340 
Q 988 1278 909 1158 
Q 831 1038 831 891 
Q 831 666 1001 516 
Q 1172 366 1500 366 
Q 1825 366 2078 508 
Q 2331 650 2450 897 
Q 2541 1088 2541 1459 
L 2541 1666 
z
" transform="scale(0.015625)"/>
       <path id="ArialMT-6c" d="M 409 0 
L 409 4581 
L 972 4581 
L 972 0 
L 409 0 
z
" transform="scale(0.015625)"/>
       <path id="ArialMT-64" d="M 2575 0 
L 2575 419 
Q 2259 -75 1647 -75 
Q 1250 -75 917 144 
Q 584 363 401 755 
Q 219 1147 219 1656 
Q 219 2153 384 2558 
Q 550 2963 881 3178 
Q 1213 3394 1622 3394 
Q 1922 3394 2156 3267 
Q 2391 3141 2538 2938 
L 2538 4581 
L 3097 4581 
L 3097 0 
L 2575 0 
z
M 797 1656 
Q 797 1019 1065 703 
Q 1334 388 1700 388 
Q 2069 388 2326 689 
Q 2584 991 2584 1609 
Q 2584 2291 2321 2609 
Q 2059 2928 1675 2928 
Q 1300 2928 1048 2622 
Q 797 2316 797 1656 
z
" transform="scale(0.015625)"/>
       <path id="ArialMT-20" transform="scale(0.015625)"/>
       <path id="ArialMT-6f" d="M 213 1659 
Q 213 2581 725 3025 
Q 1153 3394 1769 3394 
Q 2453 3394 2887 2945 
Q 3322 2497 3322 1706 
Q 3322 1066 3130 698 
Q 2938 331 2570 128 
Q 2203 -75 1769 -75 
Q 1072 -75 642 372 
Q 213 819 213 1659 
z
M 791 1659 
Q 791 1022 1069 705 
Q 1347 388 1769 388 
Q 2188 388 2466 706 
Q 2744 1025 2744 1678 
Q 2744 2294 2464 2611 
Q 2184 2928 1769 2928 
Q 1347 2928 1069 2612 
Q 791 2297 791 1659 
z
" transform="scale(0.015625)"/>
       <path id="ArialMT-72" d="M 416 0 
L 416 3319 
L 922 3319 
L 922 2816 
Q 1116 3169 1280 3281 
Q 1444 3394 1641 3394 
Q 1925 3394 2219 3213 
L 2025 2691 
Q 1819 2813 1613 2813 
Q 1428 2813 1281 2702 
Q 1134 2591 1072 2394 
Q 978 2094 978 1738 
L 978 0 
L 416 0 
z
" transform="scale(0.015625)"/>
      </defs>
      <use xlink:href="#ArialMT-53"/>
      <use xlink:href="#ArialMT-63" transform="translate(66.699219 0)"/>
      <use xlink:href="#ArialMT-61" transform="translate(116.699219 0)"/>
      <use xlink:href="#ArialMT-6c" transform="translate(172.314453 0)"/>
      <use xlink:href="#ArialMT-65" transform="translate(194.53125 0)"/>
      <use xlink:href="#ArialMT-64" transform="translate(250.146484 0)"/>
      <use xlink:href="#ArialMT-20" transform="translate(305.761719 0)"/>
      <use xlink:href="#ArialMT-53" transform="translate(333.544922 0)"/>
      <use xlink:href="#ArialMT-63" transform="translate(400.244141 0)"/>
      <use xlink:href="#ArialMT-6f" transform="translate(450.244141 0)"/>
      <use xlink:href="#ArialMT-72" transform="translate(505.859375 0)"/>
      <use xlink:href="#ArialMT-65" transform="translate(539.160156 0)"/>
      <use xlink:href="#ArialMT-73" transform="translate(594.775391 0)"/>
     </g>
    </g>
   </g>
   <g id="FillBetweenPolyCollection_1"/>
   <g id="FillBetweenPolyCollection_2"/>
   <g id="FillBetweenPolyCollection_3"/>
   <g id="FillBetweenPolyCollection_4"/>
   <g id="FillBetweenPolyCollection_5"/>
   <g id="FillBetweenPolyCollection_6"/>
   <g id="FillBetweenPolyCollection_7"/>
   <g id="FillBetweenPolyCollection_8"/>
   <g id="FillBetweenPolyCollection_9"/>
   <g id="line2d_1">
    <path d="M 75.871094 305.396407 
L 128.629427 302.099665 
L 181.38776 300.06873 
L 234.146094 192.200587 
L 286.904427 377.138063 
L 339.66276 379.687909 
L 392.421094 348.630673 
L 445.179427 375.662994 
L 497.93776 382.485636 
L 550.696094 303.875713 
L 603.454427 340.173679 
L 656.21276 291.10367 
L 708.971094 321.793179 
" clip-path="url(#p997a4eefdd)" style="fill: none; stroke: #66c2a5; stroke-width: 1.5; stroke-linecap: round"/>
    <defs>
     <path id="m95d54f3190" d="M -2.12132 -2.12132 
L -2.12132 2.12132 
L 2.12132 2.12132 
L 2.12132 -2.12132 
z
" style="stroke: #ffffff; stroke-width: 0.75; stroke-linejoin: miter"/>
    </defs>
    <g clip-path="url(#p997a4eefdd)">
     <use xlink:href="#m95d54f3190" x="75.871094" y="305.396407" style="fill: #66c2a5; stroke: #ffffff; stroke-width: 0.75; stroke-linejoin: miter"/>
     <use xlink:href="#m95d54f3190" x="128.629427" y="302.099665" style="fill: #66c2a5; stroke: #ffffff; stroke-width: 0.75; stroke-linejoin: miter"/>
     <use xlink:href="#m95d54f3190" x="181.38776" y="300.06873" style="fill: #66c2a5; stroke: #ffffff; stroke-width: 0.75; stroke-linejoin: miter"/>
     <use xlink:href="#m95d54f3190" x="234.146094" y="192.200587" style="fill: #66c2a5; stroke: #ffffff; stroke-width: 0.75; stroke-linejoin: miter"/>
     <use xlink:href="#m95d54f3190" x="286.904427" y="377.138063" style="fill: #66c2a5; stroke: #ffffff; stroke-width: 0.75; stroke-linejoin: miter"/>
     <use xlink:href="#m95d54f3190" x="339.66276" y="379.687909" style="fill: #66c2a5; stroke: #ffffff; stroke-width: 0.75; stroke-linejoin: miter"/>
     <use xlink:href="#m95d54f3190" x="392.421094" y="348.630673" style="fill: #66c2a5; stroke: #ffffff; stroke-width: 0.75; stroke-linejoin: miter"/>
     <use xlink:href="#m95d54f3190" x="445.179427" y="375.662994" style="fill: #66c2a5; stroke: #ffffff; stroke-width: 0.75; stroke-linejoin: miter"/>
     <use xlink:href="#m95d54f3190" x="497.93776" y="382.485636" style="fill: #66c2a5; stroke: #ffffff; stroke-width: 0.75; stroke-linejoin: miter"/>
     <use xlink:href="#m95d54f3190" x="550.696094" y="303.875713" style="fill: #66c2a5; stroke: #ffffff; stroke-width: 0.75; stroke-linejoin: miter"/>
     <use xlink:href="#m95d54f3190" x="603.454427" y="340.173679" style="fill: #66c2a5; stroke: #ffffff; stroke-width: 0.75; stroke-linejoin: miter"/>
     <use xlink:href="#m95d54f3190" x="656.21276" y="291.10367" style="fill: #66c2a5; stroke: #ffffff; stroke-width: 0.75; stroke-linejoin: miter"/>
     <use xlink:href="#m95d54f3190" x="708.971094" y="321.793179" style="fill: #66c2a5; stroke: #ffffff; stroke-width: 0.75; stroke-linejoin: miter"/>
    </g>
   </g>
   <g id="line2d_2">
    <path d="M 75.871094 445.499501 
L 128.629427 253.991281 
L 181.38776 353.768726 
L 234.146094 357.468531 
L 286.904427 314.67238 
L 339.66276 323.795182 
L 392.421094 348.630673 
L 445.179427 317.53547 
L 497.93776 213.136259 
L 550.696094 165.662319 
L 603.454427 340.173679 
L 656.21276 385.957847 
L 708.971094 277.85802 
" clip-path="url(#p997a4eefdd)" style="fill: none; stroke: #66c2a5; stroke-width: 1.5; stroke-linecap: round"/>
    <defs>
     <path id="md622c82dac" d="M -0 3 
L 3 -3 
L -3 -3 
z
" style="stroke: #ffffff; stroke-width: 0.75; stroke-linejoin: miter"/>
    </defs>
    <g clip-path="url(#p997a4eefdd)">
     <use xlink:href="#md622c82dac" x="75.871094" y="445.499501" style="fill: #66c2a5; stroke: #ffffff; stroke-width: 0.75; stroke-linejoin: miter"/>
     <use xlink:href="#md622c82dac" x="128.629427" y="253.991281" style="fill: #66c2a5; stroke: #ffffff; stroke-width: 0.75; stroke-linejoin: miter"/>
     <use xlink:href="#md622c82dac" x="181.38776" y="353.768726" style="fill: #66c2a5; stroke: #ffffff; stroke-width: 0.75; stroke-linejoin: miter"/>
     <use xlink:href="#md622c82dac" x="234.146094" y="357.468531" style="fill: #66c2a5; stroke: #ffffff; stroke-width: 0.75; stroke-linejoin: miter"/>
     <use xlink:href="#md622c82dac" x="286.904427" y="314.67238" style="fill: #66c2a5; stroke: #ffffff; stroke-width: 0.75; stroke-linejoin: miter"/>
     <use xlink:href="#md622c82dac" x="339.66276" y="323.795182" style="fill: #66c2a5; stroke: #ffffff; stroke-width: 0.75; stroke-linejoin: miter"/>
     <use xlink:href="#md622c82dac" x="392.421094" y="348.630673" style="fill: #66c2a5; stroke: #ffffff; stroke-width: 0.75; stroke-linejoin: miter"/>
     <use xlink:href="#md622c82dac" x="445.179427" y="317.53547" style="fill: #66c2a5; stroke: #ffffff; stroke-width: 0.75; stroke-linejoin: miter"/>
     <use xlink:href="#md622c82dac" x="497.93776" y="213.136259" style="fill: #66c2a5; stroke: #ffffff; stroke-width: 0.75; stroke-linejoin: miter"/>
     <use xlink:href="#md622c82dac" x="550.696094" y="165.662319" style="fill: #66c2a5; stroke: #ffffff; stroke-width: 0.75; stroke-linejoin: miter"/>
     <use xlink:href="#md622c82dac" x="603.454427" y="340.173679" style="fill: #66c2a5; stroke: #ffffff; stroke-width: 0.75; stroke-linejoin: miter"/>
     <use xlink:href="#md622c82dac" x="656.21276" y="385.957847" style="fill: #66c2a5; stroke: #ffffff; stroke-width: 0.75; stroke-linejoin: miter"/>
     <use xlink:href="#md622c82dac" x="708.971094" y="277.85802" style="fill: #66c2a5; stroke: #ffffff; stroke-width: 0.75; stroke-linejoin: miter"/>
    </g>
   </g>
   <g id="line2d_3">
    <path d="M 75.871094 445.499501 
L 128.629427 446.424817 
L 181.38776 407.468721 
L 234.146094 357.468531 
L 286.904427 377.138063 
L 339.66276 379.687909 
L 392.421094 149.984186 
L 445.179427 375.662994 
L 497.93776 382.485636 
L 550.696094 211.733451 
L 603.454427 436.172799 
L 656.21276 338.530759 
L 708.971094 233.922861 
" clip-path="url(#p997a4eefdd)" style="fill: none; stroke: #fc8d62; stroke-width: 1.5; stroke-linecap: round"/>
    <defs>
     <path id="m5105bed9f2" d="M 0 3 
C 0.795609 3 1.55874 2.683901 2.12132 2.12132 
C 2.683901 1.55874 3 0.795609 3 0 
C 3 -0.795609 2.683901 -1.55874 2.12132 -2.12132 
C 1.55874 -2.683901 0.795609 -3 0 -3 
C -0.795609 -3 -1.55874 -2.683901 -2.12132 -2.12132 
C -2.683901 -1.55874 -3 -0.795609 -3 0 
C -3 0.795609 -2.683901 1.55874 -2.12132 2.12132 
C -1.55874 2.683901 -0.795609 3 0 3 
z
" style="stroke: #ffffff; stroke-width: 0.75"/>
    </defs>
    <g clip-path="url(#p997a4eefdd)">
     <use xlink:href="#m5105bed9f2" x="75.871094" y="445.499501" style="fill: #fc8d62; stroke: #ffffff; stroke-width: 0.75"/>
     <use xlink:href="#m5105bed9f2" x="128.629427" y="446.424817" style="fill: #fc8d62; stroke: #ffffff; stroke-width: 0.75"/>
     <use xlink:href="#m5105bed9f2" x="181.38776" y="407.468721" style="fill: #fc8d62; stroke: #ffffff; stroke-width: 0.75"/>
     <use xlink:href="#m5105bed9f2" x="234.146094" y="357.468531" style="fill: #fc8d62; stroke: #ffffff; stroke-width: 0.75"/>
     <use xlink:href="#m5105bed9f2" x="286.904427" y="377.138063" style="fill: #fc8d62; stroke: #ffffff; stroke-width: 0.75"/>
     <use xlink:href="#m5105bed9f2" x="339.66276" y="379.687909" style="fill: #fc8d62; stroke: #ffffff; stroke-width: 0.75"/>
     <use xlink:href="#m5105bed9f2" x="392.421094" y="149.984186" style="fill: #fc8d62; stroke: #ffffff; stroke-width: 0.75"/>
     <use xlink:href="#m5105bed9f2" x="445.179427" y="375.662994" style="fill: #fc8d62; stroke: #ffffff; stroke-width: 0.75"/>
     <use xlink:href="#m5105bed9f2" x="497.93776" y="382.485636" style="fill: #fc8d62; stroke: #ffffff; stroke-width: 0.75"/>
     <use xlink:href="#m5105bed9f2" x="550.696094" y="211.733451" style="fill: #fc8d62; stroke: #ffffff; stroke-width: 0.75"/>
     <use xlink:href="#m5105bed9f2" x="603.454427" y="436.172799" style="fill: #fc8d62; stroke: #ffffff; stroke-width: 0.75"/>
     <use xlink:href="#m5105bed9f2" x="656.21276" y="338.530759" style="fill: #fc8d62; stroke: #ffffff; stroke-width: 0.75"/>
     <use xlink:href="#m5105bed9f2" x="708.971094" y="233.922861" style="fill: #fc8d62; stroke: #ffffff; stroke-width: 0.75"/>
    </g>
   </g>
   <g id="line2d_4">
    <path d="M 75.871094 445.499501 
L 128.629427 398.316433 
L 181.38776 407.468721 
L 234.146094 412.557845 
L 286.904427 189.741013 
L 339.66276 379.687909 
L 392.421094 199.645807 
L 445.179427 375.662994 
L 497.93776 382.485636 
L 550.696094 442.089108 
L 603.454427 436.172799 
L 656.21276 385.957847 
L 708.971094 453.598657 
" clip-path="url(#p997a4eefdd)" style="fill: none; stroke: #fc8d62; stroke-width: 1.5; stroke-linecap: round"/>
    <defs>
     <path id="me6a6e7ae2d" d="M -1.5 3 
L 0 1.5 
L 1.5 3 
L 3 1.5 
L 1.5 0 
L 3 -1.5 
L 1.5 -3 
L 0 -1.5 
L -1.5 -3 
L -3 -1.5 
L -1.5 0 
L -3 1.5 
z
" style="stroke: #ffffff; stroke-width: 0.75; stroke-linejoin: miter"/>
    </defs>
    <g clip-path="url(#p997a4eefdd)">
     <use xlink:href="#me6a6e7ae2d" x="75.871094" y="445.499501" style="fill: #fc8d62; stroke: #ffffff; stroke-width: 0.75; stroke-linejoin: miter"/>
     <use xlink:href="#me6a6e7ae2d" x="128.629427" y="398.316433" style="fill: #fc8d62; stroke: #ffffff; stroke-width: 0.75; stroke-linejoin: miter"/>
     <use xlink:href="#me6a6e7ae2d" x="181.38776" y="407.468721" style="fill: #fc8d62; stroke: #ffffff; stroke-width: 0.75; stroke-linejoin: miter"/>
     <use xlink:href="#me6a6e7ae2d" x="234.146094" y="412.557845" style="fill: #fc8d62; stroke: #ffffff; stroke-width: 0.75; stroke-linejoin: miter"/>
     <use xlink:href="#me6a6e7ae2d" x="286.904427" y="189.741013" style="fill: #fc8d62; stroke: #ffffff; stroke-width: 0.75; stroke-linejoin: miter"/>
     <use xlink:href="#me6a6e7ae2d" x="339.66276" y="379.687909" style="fill: #fc8d62; stroke: #ffffff; stroke-width: 0.75; stroke-linejoin: miter"/>
     <use xlink:href="#me6a6e7ae2d" x="392.421094" y="199.645807" style="fill: #fc8d62; stroke: #ffffff; stroke-width: 0.75; stroke-linejoin: miter"/>
     <use xlink:href="#me6a6e7ae2d" x="445.179427" y="375.662994" style="fill: #fc8d62; stroke: #ffffff; stroke-width: 0.75; stroke-linejoin: miter"/>
     <use xlink:href="#me6a6e7ae2d" x="497.93776" y="382.485636" style="fill: #fc8d62; stroke: #ffffff; stroke-width: 0.75; stroke-linejoin: miter"/>
     <use xlink:href="#me6a6e7ae2d" x="550.696094" y="442.089108" style="fill: #fc8d62; stroke: #ffffff; stroke-width: 0.75; stroke-linejoin: miter"/>
     <use xlink:href="#me6a6e7ae2d" x="603.454427" y="436.172799" style="fill: #fc8d62; stroke: #ffffff; stroke-width: 0.75; stroke-linejoin: miter"/>
     <use xlink:href="#me6a6e7ae2d" x="656.21276" y="385.957847" style="fill: #fc8d62; stroke: #ffffff; stroke-width: 0.75; stroke-linejoin: miter"/>
     <use xlink:href="#me6a6e7ae2d" x="708.971094" y="453.598657" style="fill: #fc8d62; stroke: #ffffff; stroke-width: 0.75; stroke-linejoin: miter"/>
    </g>
   </g>
   <g id="line2d_5">
    <path d="M 75.871094 352.097439 
L 128.629427 398.316433 
L 181.38776 246.368735 
L 234.146094 302.379216 
L 286.904427 252.206697 
L 339.66276 323.795182 
L 392.421094 298.969051 
L 445.179427 259.407945 
L 497.93776 269.586051 
L 550.696094 257.804582 
L 603.454427 388.173239 
L 656.21276 338.530759 
L 708.971094 321.793179 
" clip-path="url(#p997a4eefdd)" style="fill: none; stroke: #fc8d62; stroke-width: 1.5; stroke-linecap: round"/>
    <defs>
     <path id="m686b18fae2" d="M 0 -3 
L -1.06066 -1.06066 
L -3 -0 
L -1.06066 1.06066 
L -0 3 
L 1.06066 1.06066 
L 3 0 
L 1.06066 -1.06066 
z
" style="stroke: #ffffff; stroke-width: 0.75; stroke-linejoin: bevel"/>
    </defs>
    <g clip-path="url(#p997a4eefdd)">
     <use xlink:href="#m686b18fae2" x="75.871094" y="352.097439" style="fill: #fc8d62; stroke: #ffffff; stroke-width: 0.75; stroke-linejoin: bevel"/>
     <use xlink:href="#m686b18fae2" x="128.629427" y="398.316433" style="fill: #fc8d62; stroke: #ffffff; stroke-width: 0.75; stroke-linejoin: bevel"/>
     <use xlink:href="#m686b18fae2" x="181.38776" y="246.368735" style="fill: #fc8d62; stroke: #ffffff; stroke-width: 0.75; stroke-linejoin: bevel"/>
     <use xlink:href="#m686b18fae2" x="234.146094" y="302.379216" style="fill: #fc8d62; stroke: #ffffff; stroke-width: 0.75; stroke-linejoin: bevel"/>
     <use xlink:href="#m686b18fae2" x="286.904427" y="252.206697" style="fill: #fc8d62; stroke: #ffffff; stroke-width: 0.75; stroke-linejoin: bevel"/>
     <use xlink:href="#m686b18fae2" x="339.66276" y="323.795182" style="fill: #fc8d62; stroke: #ffffff; stroke-width: 0.75; stroke-linejoin: bevel"/>
     <use xlink:href="#m686b18fae2" x="392.421094" y="298.969051" style="fill: #fc8d62; stroke: #ffffff; stroke-width: 0.75; stroke-linejoin: bevel"/>
     <use xlink:href="#m686b18fae2" x="445.179427" y="259.407945" style="fill: #fc8d62; stroke: #ffffff; stroke-width: 0.75; stroke-linejoin: bevel"/>
     <use xlink:href="#m686b18fae2" x="497.93776" y="269.586051" style="fill: #fc8d62; stroke: #ffffff; stroke-width: 0.75; stroke-linejoin: bevel"/>
     <use xlink:href="#m686b18fae2" x="550.696094" y="257.804582" style="fill: #fc8d62; stroke: #ffffff; stroke-width: 0.75; stroke-linejoin: bevel"/>
     <use xlink:href="#m686b18fae2" x="603.454427" y="388.173239" style="fill: #fc8d62; stroke: #ffffff; stroke-width: 0.75; stroke-linejoin: bevel"/>
     <use xlink:href="#m686b18fae2" x="656.21276" y="338.530759" style="fill: #fc8d62; stroke: #ffffff; stroke-width: 0.75; stroke-linejoin: bevel"/>
     <use xlink:href="#m686b18fae2" x="708.971094" y="321.793179" style="fill: #fc8d62; stroke: #ffffff; stroke-width: 0.75; stroke-linejoin: bevel"/>
    </g>
   </g>
   <g id="line2d_6">
    <path d="M 75.871094 258.695376 
L 128.629427 350.208049 
L 181.38776 353.768726 
L 234.146094 192.200587 
L 286.904427 377.138063 
L 339.66276 379.687909 
L 392.421094 398.292295 
L 445.179427 259.407945 
L 497.93776 382.485636 
L 550.696094 396.017976 
L 603.454427 340.173679 
L 656.21276 338.530759 
L 708.971094 321.793179 
" clip-path="url(#p997a4eefdd)" style="fill: none; stroke: #fc8d62; stroke-width: 1.5; stroke-linecap: round"/>
    <defs>
     <path id="ma4ea359ccb" d="M 0 -3 
L -3 3 
L 3 3 
z
" style="stroke: #ffffff; stroke-width: 0.75; stroke-linejoin: miter"/>
    </defs>
    <g clip-path="url(#p997a4eefdd)">
     <use xlink:href="#ma4ea359ccb" x="75.871094" y="258.695376" style="fill: #fc8d62; stroke: #ffffff; stroke-width: 0.75; stroke-linejoin: miter"/>
     <use xlink:href="#ma4ea359ccb" x="128.629427" y="350.208049" style="fill: #fc8d62; stroke: #ffffff; stroke-width: 0.75; stroke-linejoin: miter"/>
     <use xlink:href="#ma4ea359ccb" x="181.38776" y="353.768726" style="fill: #fc8d62; stroke: #ffffff; stroke-width: 0.75; stroke-linejoin: miter"/>
     <use xlink:href="#ma4ea359ccb" x="234.146094" y="192.200587" style="fill: #fc8d62; stroke: #ffffff; stroke-width: 0.75; stroke-linejoin: miter"/>
     <use xlink:href="#ma4ea359ccb" x="286.904427" y="377.138063" style="fill: #fc8d62; stroke: #ffffff; stroke-width: 0.75; stroke-linejoin: miter"/>
     <use xlink:href="#ma4ea359ccb" x="339.66276" y="379.687909" style="fill: #fc8d62; stroke: #ffffff; stroke-width: 0.75; stroke-linejoin: miter"/>
     <use xlink:href="#ma4ea359ccb" x="392.421094" y="398.292295" style="fill: #fc8d62; stroke: #ffffff; stroke-width: 0.75; stroke-linejoin: miter"/>
     <use xlink:href="#ma4ea359ccb" x="445.179427" y="259.407945" style="fill: #fc8d62; stroke: #ffffff; stroke-width: 0.75; stroke-linejoin: miter"/>
     <use xlink:href="#ma4ea359ccb" x="497.93776" y="382.485636" style="fill: #fc8d62; stroke: #ffffff; stroke-width: 0.75; stroke-linejoin: miter"/>
     <use xlink:href="#ma4ea359ccb" x="550.696094" y="396.017976" style="fill: #fc8d62; stroke: #ffffff; stroke-width: 0.75; stroke-linejoin: miter"/>
     <use xlink:href="#ma4ea359ccb" x="603.454427" y="340.173679" style="fill: #fc8d62; stroke: #ffffff; stroke-width: 0.75; stroke-linejoin: miter"/>
     <use xlink:href="#ma4ea359ccb" x="656.21276" y="338.530759" style="fill: #fc8d62; stroke: #ffffff; stroke-width: 0.75; stroke-linejoin: miter"/>
     <use xlink:href="#ma4ea359ccb" x="708.971094" y="321.793179" style="fill: #fc8d62; stroke: #ffffff; stroke-width: 0.75; stroke-linejoin: miter"/>
    </g>
   </g>
   <g id="line2d_7">
    <path d="M 75.871094 445.499501 
L 128.629427 446.424817 
L 181.38776 407.468721 
L 234.146094 412.557845 
L 286.904427 377.138063 
L 339.66276 379.687909 
L 392.421094 398.292295 
L 445.179427 375.662994 
L 497.93776 382.485636 
L 550.696094 442.089108 
L 603.454427 436.172799 
L 656.21276 480.812024 
L 708.971094 453.598657 
" clip-path="url(#p997a4eefdd)" style="fill: none; stroke: #fc8d62; stroke-width: 1.5; stroke-linecap: round"/>
    <defs>
     <path id="m10d20f209a" d="M -2.12132 -2.12132 
L -1.5 -0 
L -2.12132 2.12132 
L -0 1.5 
L 2.12132 2.12132 
L 1.5 0 
L 2.12132 -2.12132 
L 0 -1.5 
z
" style="stroke: #ffffff; stroke-width: 0.75; stroke-linejoin: bevel"/>
    </defs>
    <g clip-path="url(#p997a4eefdd)">
     <use xlink:href="#m10d20f209a" x="75.871094" y="445.499501" style="fill: #fc8d62; stroke: #ffffff; stroke-width: 0.75; stroke-linejoin: bevel"/>
     <use xlink:href="#m10d20f209a" x="128.629427" y="446.424817" style="fill: #fc8d62; stroke: #ffffff; stroke-width: 0.75; stroke-linejoin: bevel"/>
     <use xlink:href="#m10d20f209a" x="181.38776" y="407.468721" style="fill: #fc8d62; stroke: #ffffff; stroke-width: 0.75; stroke-linejoin: bevel"/>
     <use xlink:href="#m10d20f209a" x="234.146094" y="412.557845" style="fill: #fc8d62; stroke: #ffffff; stroke-width: 0.75; stroke-linejoin: bevel"/>
     <use xlink:href="#m10d20f209a" x="286.904427" y="377.138063" style="fill: #fc8d62; stroke: #ffffff; stroke-width: 0.75; stroke-linejoin: bevel"/>
     <use xlink:href="#m10d20f209a" x="339.66276" y="379.687909" style="fill: #fc8d62; stroke: #ffffff; stroke-width: 0.75; stroke-linejoin: bevel"/>
     <use xlink:href="#m10d20f209a" x="392.421094" y="398.292295" style="fill: #fc8d62; stroke: #ffffff; stroke-width: 0.75; stroke-linejoin: bevel"/>
     <use xlink:href="#m10d20f209a" x="445.179427" y="375.662994" style="fill: #fc8d62; stroke: #ffffff; stroke-width: 0.75; stroke-linejoin: bevel"/>
     <use xlink:href="#m10d20f209a" x="497.93776" y="382.485636" style="fill: #fc8d62; stroke: #ffffff; stroke-width: 0.75; stroke-linejoin: bevel"/>
     <use xlink:href="#m10d20f209a" x="550.696094" y="442.089108" style="fill: #fc8d62; stroke: #ffffff; stroke-width: 0.75; stroke-linejoin: bevel"/>
     <use xlink:href="#m10d20f209a" x="603.454427" y="436.172799" style="fill: #fc8d62; stroke: #ffffff; stroke-width: 0.75; stroke-linejoin: bevel"/>
     <use xlink:href="#m10d20f209a" x="656.21276" y="480.812024" style="fill: #fc8d62; stroke: #ffffff; stroke-width: 0.75; stroke-linejoin: bevel"/>
     <use xlink:href="#m10d20f209a" x="708.971094" y="453.598657" style="fill: #fc8d62; stroke: #ffffff; stroke-width: 0.75; stroke-linejoin: bevel"/>
    </g>
   </g>
   <g id="line2d_8">
    <path d="M 75.871094 352.097439 
L 128.629427 253.991281 
L 181.38776 246.368735 
L 234.146094 192.200587 
L 286.904427 252.206697 
L 339.66276 267.902454 
L 392.421094 199.645807 
L 445.179427 201.28042 
L 497.93776 156.686467 
L 550.696094 211.733451 
L 603.454427 244.17456 
L 656.21276 196.249494 
L 708.971094 189.987701 
" clip-path="url(#p997a4eefdd)" style="fill: none; stroke: #8da0cb; stroke-width: 1.5; stroke-linecap: round"/>
    <defs>
     <path id="md4fbb34dad" d="M -1 3 
L 1 3 
L 1 1 
L 3 1 
L 3 -1 
L 1 -1 
L 1 -3 
L -1 -3 
L -1 -1 
L -3 -1 
L -3 1 
L -1 1 
z
" style="stroke: #ffffff; stroke-width: 0.75; stroke-linejoin: miter"/>
    </defs>
    <g clip-path="url(#p997a4eefdd)">
     <use xlink:href="#md4fbb34dad" x="75.871094" y="352.097439" style="fill: #8da0cb; stroke: #ffffff; stroke-width: 0.75; stroke-linejoin: miter"/>
     <use xlink:href="#md4fbb34dad" x="128.629427" y="253.991281" style="fill: #8da0cb; stroke: #ffffff; stroke-width: 0.75; stroke-linejoin: miter"/>
     <use xlink:href="#md4fbb34dad" x="181.38776" y="246.368735" style="fill: #8da0cb; stroke: #ffffff; stroke-width: 0.75; stroke-linejoin: miter"/>
     <use xlink:href="#md4fbb34dad" x="234.146094" y="192.200587" style="fill: #8da0cb; stroke: #ffffff; stroke-width: 0.75; stroke-linejoin: miter"/>
     <use xlink:href="#md4fbb34dad" x="286.904427" y="252.206697" style="fill: #8da0cb; stroke: #ffffff; stroke-width: 0.75; stroke-linejoin: miter"/>
     <use xlink:href="#md4fbb34dad" x="339.66276" y="267.902454" style="fill: #8da0cb; stroke: #ffffff; stroke-width: 0.75; stroke-linejoin: miter"/>
     <use xlink:href="#md4fbb34dad" x="392.421094" y="199.645807" style="fill: #8da0cb; stroke: #ffffff; stroke-width: 0.75; stroke-linejoin: miter"/>
     <use xlink:href="#md4fbb34dad" x="445.179427" y="201.28042" style="fill: #8da0cb; stroke: #ffffff; stroke-width: 0.75; stroke-linejoin: miter"/>
     <use xlink:href="#md4fbb34dad" x="497.93776" y="156.686467" style="fill: #8da0cb; stroke: #ffffff; stroke-width: 0.75; stroke-linejoin: miter"/>
     <use xlink:href="#md4fbb34dad" x="550.696094" y="211.733451" style="fill: #8da0cb; stroke: #ffffff; stroke-width: 0.75; stroke-linejoin: miter"/>
     <use xlink:href="#md4fbb34dad" x="603.454427" y="244.17456" style="fill: #8da0cb; stroke: #ffffff; stroke-width: 0.75; stroke-linejoin: miter"/>
     <use xlink:href="#md4fbb34dad" x="656.21276" y="196.249494" style="fill: #8da0cb; stroke: #ffffff; stroke-width: 0.75; stroke-linejoin: miter"/>
     <use xlink:href="#md4fbb34dad" x="708.971094" y="189.987701" style="fill: #8da0cb; stroke: #ffffff; stroke-width: 0.75; stroke-linejoin: miter"/>
    </g>
   </g>
   <g id="line2d_9">
    <path d="M 75.871094 165.293314 
L 128.629427 157.774513 
L 181.38776 138.968744 
L 234.146094 82.021959 
L 286.904427 127.27533 
L 339.66276 212.009727 
L 392.421094 149.984186 
L 445.179427 259.407945 
L 497.93776 43.786882 
L 550.696094 165.662319 
L 603.454427 148.175441 
L 656.21276 196.249494 
L 708.971094 189.987701 
" clip-path="url(#p997a4eefdd)" style="fill: none; stroke: #8da0cb; stroke-width: 1.5; stroke-linecap: round"/>
    <defs>
     <path id="ma9cea5c283" d="M 0 -3 
L -3 -0 
L -0 3 
L 3 0 
z
" style="stroke: #ffffff; stroke-width: 0.75; stroke-linejoin: miter"/>
    </defs>
    <g clip-path="url(#p997a4eefdd)">
     <use xlink:href="#ma9cea5c283" x="75.871094" y="165.293314" style="fill: #8da0cb; stroke: #ffffff; stroke-width: 0.75; stroke-linejoin: miter"/>
     <use xlink:href="#ma9cea5c283" x="128.629427" y="157.774513" style="fill: #8da0cb; stroke: #ffffff; stroke-width: 0.75; stroke-linejoin: miter"/>
     <use xlink:href="#ma9cea5c283" x="181.38776" y="138.968744" style="fill: #8da0cb; stroke: #ffffff; stroke-width: 0.75; stroke-linejoin: miter"/>
     <use xlink:href="#ma9cea5c283" x="234.146094" y="82.021959" style="fill: #8da0cb; stroke: #ffffff; stroke-width: 0.75; stroke-linejoin: miter"/>
     <use xlink:href="#ma9cea5c283" x="286.904427" y="127.27533" style="fill: #8da0cb; stroke: #ffffff; stroke-width: 0.75; stroke-linejoin: miter"/>
     <use xlink:href="#ma9cea5c283" x="339.66276" y="212.009727" style="fill: #8da0cb; stroke: #ffffff; stroke-width: 0.75; stroke-linejoin: miter"/>
     <use xlink:href="#ma9cea5c283" x="392.421094" y="149.984186" style="fill: #8da0cb; stroke: #ffffff; stroke-width: 0.75; stroke-linejoin: miter"/>
     <use xlink:href="#ma9cea5c283" x="445.179427" y="259.407945" style="fill: #8da0cb; stroke: #ffffff; stroke-width: 0.75; stroke-linejoin: miter"/>
     <use xlink:href="#ma9cea5c283" x="497.93776" y="43.786882" style="fill: #8da0cb; stroke: #ffffff; stroke-width: 0.75; stroke-linejoin: miter"/>
     <use xlink:href="#ma9cea5c283" x="550.696094" y="165.662319" style="fill: #8da0cb; stroke: #ffffff; stroke-width: 0.75; stroke-linejoin: miter"/>
     <use xlink:href="#ma9cea5c283" x="603.454427" y="148.175441" style="fill: #8da0cb; stroke: #ffffff; stroke-width: 0.75; stroke-linejoin: miter"/>
     <use xlink:href="#ma9cea5c283" x="656.21276" y="196.249494" style="fill: #8da0cb; stroke: #ffffff; stroke-width: 0.75; stroke-linejoin: miter"/>
     <use xlink:href="#ma9cea5c283" x="708.971094" y="189.987701" style="fill: #8da0cb; stroke: #ffffff; stroke-width: 0.75; stroke-linejoin: miter"/>
    </g>
   </g>
   <g id="line2d_10"/>
   <g id="line2d_11"/>
   <g id="line2d_12"/>
   <g id="line2d_13"/>
   <g id="line2d_14"/>
   <g id="line2d_15"/>
   <g id="line2d_16"/>
   <g id="line2d_17"/>
   <g id="line2d_18"/>
   <g id="line2d_19"/>
   <g id="line2d_20"/>
   <g id="line2d_21"/>
   <g id="line2d_22"/>
   <g id="line2d_23"/>
   <g id="patch_3">
    <path d="M 44.216094 502.663281 
L 44.216094 21.935625 
" style="fill: none; stroke: #262626; stroke-width: 1.25; stroke-linejoin: miter; stroke-linecap: square"/>
   </g>
   <g id="patch_4">
    <path d="M 740.626094 502.663281 
L 740.626094 21.935625 
" style="fill: none; stroke: #262626; stroke-width: 1.25; stroke-linejoin: miter; stroke-linecap: square"/>
   </g>
   <g id="patch_5">
    <path d="M 44.216094 502.663281 
L 740.626094 502.663281 
" style="fill: none; stroke: #262626; stroke-width: 1.25; stroke-linejoin: miter; stroke-linecap: square"/>
   </g>
   <g id="patch_6">
    <path d="M 44.216094 21.935625 
L 740.626094 21.935625 
" style="fill: none; stroke: #262626; stroke-width: 1.25; stroke-linejoin: miter; stroke-linecap: square"/>
   </g>
   <g id="text_22">
    <!-- Item Scores for AI = 1 (Grouped by File) -->
    <g style="fill: #262626" transform="translate(286.216406 15.935625) scale(0.12 -0.12)">
     <defs>
      <path id="ArialMT-66" d="M 556 0 
L 556 2881 
L 59 2881 
L 59 3319 
L 556 3319 
L 556 3672 
Q 556 4006 616 4169 
Q 697 4388 901 4523 
Q 1106 4659 1475 4659 
Q 1713 4659 2000 4603 
L 1916 4113 
Q 1741 4144 1584 4144 
Q 1328 4144 1222 4034 
Q 1116 3925 1116 3625 
L 1116 3319 
L 1763 3319 
L 1763 2881 
L 1116 2881 
L 1116 0 
L 556 0 
z
" transform="scale(0.015625)"/>
      <path id="ArialMT-41" d="M -9 0 
L 1750 4581 
L 2403 4581 
L 4278 0 
L 3588 0 
L 3053 1388 
L 1138 1388 
L 634 0 
L -9 0 
z
M 1313 1881 
L 2866 1881 
L 2388 3150 
Q 2169 3728 2063 4100 
Q 1975 3659 1816 3225 
L 1313 1881 
z
" transform="scale(0.015625)"/>
      <path id="ArialMT-3d" d="M 3381 2694 
L 356 2694 
L 356 3219 
L 3381 3219 
L 3381 2694 
z
M 3381 1303 
L 356 1303 
L 356 1828 
L 3381 1828 
L 3381 1303 
z
" transform="scale(0.015625)"/>
      <path id="ArialMT-28" d="M 1497 -1347 
Q 1031 -759 709 28 
Q 388 816 388 1659 
Q 388 2403 628 3084 
Q 909 3875 1497 4659 
L 1900 4659 
Q 1522 4009 1400 3731 
Q 1209 3300 1100 2831 
Q 966 2247 966 1656 
Q 966 153 1900 -1347 
L 1497 -1347 
z
" transform="scale(0.015625)"/>
      <path id="ArialMT-47" d="M 2638 1797 
L 2638 2334 
L 4578 2338 
L 4578 638 
Q 4131 281 3656 101 
Q 3181 -78 2681 -78 
Q 2006 -78 1454 211 
Q 903 500 622 1047 
Q 341 1594 341 2269 
Q 341 2938 620 3517 
Q 900 4097 1425 4378 
Q 1950 4659 2634 4659 
Q 3131 4659 3532 4498 
Q 3934 4338 4162 4050 
Q 4391 3763 4509 3300 
L 3963 3150 
Q 3859 3500 3706 3700 
Q 3553 3900 3268 4020 
Q 2984 4141 2638 4141 
Q 2222 4141 1919 4014 
Q 1616 3888 1430 3681 
Q 1244 3475 1141 3228 
Q 966 2803 966 2306 
Q 966 1694 1177 1281 
Q 1388 869 1791 669 
Q 2194 469 2647 469 
Q 3041 469 3416 620 
Q 3791 772 3984 944 
L 3984 1797 
L 2638 1797 
z
" transform="scale(0.015625)"/>
      <path id="ArialMT-75" d="M 2597 0 
L 2597 488 
Q 2209 -75 1544 -75 
Q 1250 -75 995 37 
Q 741 150 617 320 
Q 494 491 444 738 
Q 409 903 409 1263 
L 409 3319 
L 972 3319 
L 972 1478 
Q 972 1038 1006 884 
Q 1059 663 1231 536 
Q 1403 409 1656 409 
Q 1909 409 2131 539 
Q 2353 669 2445 892 
Q 2538 1116 2538 1541 
L 2538 3319 
L 3100 3319 
L 3100 0 
L 2597 0 
z
" transform="scale(0.015625)"/>
      <path id="ArialMT-70" d="M 422 -1272 
L 422 3319 
L 934 3319 
L 934 2888 
Q 1116 3141 1344 3267 
Q 1572 3394 1897 3394 
Q 2322 3394 2647 3175 
Q 2972 2956 3137 2557 
Q 3303 2159 3303 1684 
Q 3303 1175 3120 767 
Q 2938 359 2589 142 
Q 2241 -75 1856 -75 
Q 1575 -75 1351 44 
Q 1128 163 984 344 
L 984 -1272 
L 422 -1272 
z
M 931 1641 
Q 931 1000 1190 694 
Q 1450 388 1819 388 
Q 2194 388 2461 705 
Q 2728 1022 2728 1688 
Q 2728 2322 2467 2637 
Q 2206 2953 1844 2953 
Q 1484 2953 1207 2617 
Q 931 2281 931 1641 
z
" transform="scale(0.015625)"/>
      <path id="ArialMT-62" d="M 941 0 
L 419 0 
L 419 4581 
L 981 4581 
L 981 2947 
Q 1338 3394 1891 3394 
Q 2197 3394 2470 3270 
Q 2744 3147 2920 2923 
Q 3097 2700 3197 2384 
Q 3297 2069 3297 1709 
Q 3297 856 2875 390 
Q 2453 -75 1863 -75 
Q 1275 -75 941 416 
L 941 0 
z
M 934 1684 
Q 934 1088 1097 822 
Q 1363 388 1816 388 
Q 2184 388 2453 708 
Q 2722 1028 2722 1663 
Q 2722 2313 2464 2622 
Q 2206 2931 1841 2931 
Q 1472 2931 1203 2611 
Q 934 2291 934 1684 
z
" transform="scale(0.015625)"/>
      <path id="ArialMT-79" d="M 397 -1278 
L 334 -750 
Q 519 -800 656 -800 
Q 844 -800 956 -737 
Q 1069 -675 1141 -563 
Q 1194 -478 1313 -144 
Q 1328 -97 1363 -6 
L 103 3319 
L 709 3319 
L 1400 1397 
Q 1534 1031 1641 628 
Q 1738 1016 1872 1384 
L 2581 3319 
L 3144 3319 
L 1881 -56 
Q 1678 -603 1566 -809 
Q 1416 -1088 1222 -1217 
Q 1028 -1347 759 -1347 
Q 597 -1347 397 -1278 
z
" transform="scale(0.015625)"/>
      <path id="ArialMT-46" d="M 525 0 
L 525 4581 
L 3616 4581 
L 3616 4041 
L 1131 4041 
L 1131 2622 
L 3281 2622 
L 3281 2081 
L 1131 2081 
L 1131 0 
L 525 0 
z
" transform="scale(0.015625)"/>
      <path id="ArialMT-29" d="M 791 -1347 
L 388 -1347 
Q 1322 153 1322 1656 
Q 1322 2244 1188 2822 
Q 1081 3291 891 3722 
Q 769 4003 388 4659 
L 791 4659 
Q 1378 3875 1659 3084 
Q 1900 2403 1900 1659 
Q 1900 816 1576 28 
Q 1253 -759 791 -1347 
z
" transform="scale(0.015625)"/>
     </defs>
     <use xlink:href="#ArialMT-49"/>
     <use xlink:href="#ArialMT-74" transform="translate(27.783203 0)"/>
     <use xlink:href="#ArialMT-65" transform="translate(55.566406 0)"/>
     <use xlink:href="#ArialMT-6d" transform="translate(111.181641 0)"/>
     <use xlink:href="#ArialMT-20" transform="translate(194.482422 0)"/>
     <use xlink:href="#ArialMT-53" transform="translate(222.265625 0)"/>
     <use xlink:href="#ArialMT-63" transform="translate(288.964844 0)"/>
     <use xlink:href="#ArialMT-6f" transform="translate(338.964844 0)"/>
     <use xlink:href="#ArialMT-72" transform="translate(394.580078 0)"/>
     <use xlink:href="#ArialMT-65" transform="translate(427.880859 0)"/>
     <use xlink:href="#ArialMT-73" transform="translate(483.496094 0)"/>
     <use xlink:href="#ArialMT-20" transform="translate(533.496094 0)"/>
     <use xlink:href="#ArialMT-66" transform="translate(561.279297 0)"/>
     <use xlink:href="#ArialMT-6f" transform="translate(589.0625 0)"/>
     <use xlink:href="#ArialMT-72" transform="translate(644.677734 0)"/>
     <use xlink:href="#ArialMT-20" transform="translate(677.978516 0)"/>
     <use xlink:href="#ArialMT-41" transform="translate(700.261719 0)"/>
     <use xlink:href="#ArialMT-49" transform="translate(766.960938 0)"/>
     <use xlink:href="#ArialMT-20" transform="translate(794.744141 0)"/>
     <use xlink:href="#ArialMT-3d" transform="translate(822.527344 0)"/>
     <use xlink:href="#ArialMT-20" transform="translate(880.925781 0)"/>
     <use xlink:href="#ArialMT-31" transform="translate(908.708984 0)"/>
     <use xlink:href="#ArialMT-20" transform="translate(964.324219 0)"/>
     <use xlink:href="#ArialMT-28" transform="translate(992.107422 0)"/>
     <use xlink:href="#ArialMT-47" transform="translate(1025.408203 0)"/>
     <use xlink:href="#ArialMT-72" transform="translate(1103.191406 0)"/>
     <use xlink:href="#ArialMT-6f" transform="translate(1136.492188 0)"/>
     <use xlink:href="#ArialMT-75" transform="translate(1192.107422 0)"/>
     <use xlink:href="#ArialMT-70" transform="translate(1247.722656 0)"/>
     <use xlink:href="#ArialMT-65" transform="translate(1303.337891 0)"/>
     <use xlink:href="#ArialMT-64" transform="translate(1358.953125 0)"/>
     <use xlink:href="#ArialMT-20" transform="translate(1414.568359 0)"/>
     <use xlink:href="#ArialMT-62" transform="translate(1442.351562 0)"/>
     <use xlink:href="#ArialMT-79" transform="translate(1497.966797 0)"/>
     <use xlink:href="#ArialMT-20" transform="translate(1547.966797 0)"/>
     <use xlink:href="#ArialMT-46" transform="translate(1575.75 0)"/>
     <use xlink:href="#ArialMT-69" transform="translate(1636.833984 0)"/>
     <use xlink:href="#ArialMT-6c" transform="translate(1659.050781 0)"/>
     <use xlink:href="#ArialMT-65" transform="translate(1681.267578 0)"/>
     <use xlink:href="#ArialMT-29" transform="translate(1736.882812 0)"/>
    </g>
   </g>
   <g id="legend_1">
    <g id="patch_7">
     <path d="M 783.146594 265.047812 
L 844.64175 265.047812 
Q 846.84175 265.047812 846.84175 262.847812 
L 846.84175 29.635625 
Q 846.84175 27.435625 844.64175 27.435625 
L 783.146594 27.435625 
Q 780.946594 27.435625 780.946594 29.635625 
L 780.946594 262.847812 
Q 780.946594 265.047812 783.146594 265.047812 
z
" style="fill: #ffffff; opacity: 0.8; stroke: #cccccc; stroke-linejoin: miter"/>
    </g>
    <g id="text_23">
     <!-- File -->
     <g style="fill: #262626" transform="translate(804.226672 40.425) scale(0.12 -0.12)">
      <use xlink:href="#ArialMT-46"/>
      <use xlink:href="#ArialMT-69" transform="translate(61.083984 0)"/>
      <use xlink:href="#ArialMT-6c" transform="translate(83.300781 0)"/>
      <use xlink:href="#ArialMT-65" transform="translate(105.517578 0)"/>
     </g>
    </g>
    <g id="line2d_24">
     <path d="M 785.346594 52.333594 
L 796.346594 52.333594 
L 807.346594 52.333594 
" style="fill: none"/>
    </g>
    <g id="text_24">
     <!-- File -->
     <g style="fill: #262626" transform="translate(816.146594 56.183594) scale(0.11 -0.11)">
      <use xlink:href="#ArialMT-46"/>
      <use xlink:href="#ArialMT-69" transform="translate(61.083984 0)"/>
      <use xlink:href="#ArialMT-6c" transform="translate(83.300781 0)"/>
      <use xlink:href="#ArialMT-65" transform="translate(105.517578 0)"/>
     </g>
    </g>
    <g id="line2d_25">
     <path d="M 785.346594 67.893437 
L 796.346594 67.893437 
L 807.346594 67.893437 
" style="fill: none; stroke: #66c2a5; stroke-width: 1.5; stroke-linecap: round"/>
    </g>
    <g id="text_25">
     <!-- 1 -->
     <g style="fill: #262626" transform="translate(816.146594 71.743437) scale(0.11 -0.11)">
      <use xlink:href="#ArialMT-31"/>
     </g>
    </g>
    <g id="line2d_26">
     <path d="M 785.346594 83.453281 
L 796.346594 83.453281 
L 807.346594 83.453281 
" style="fill: none; stroke: #fc8d62; stroke-width: 1.5; stroke-linecap: round"/>
    </g>
    <g id="text_26">
     <!-- 2 -->
     <g style="fill: #262626" transform="translate(816.146594 87.303281) scale(0.11 -0.11)">
      <use xlink:href="#ArialMT-32"/>
     </g>
    </g>
    <g id="line2d_27">
     <path d="M 785.346594 99.013125 
L 796.346594 99.013125 
L 807.346594 99.013125 
" style="fill: none; stroke: #8da0cb; stroke-width: 1.5; stroke-linecap: round"/>
    </g>
    <g id="text_27">
     <!-- 3 -->
     <g style="fill: #262626" transform="translate(816.146594 102.863125) scale(0.11 -0.11)">
      <use xlink:href="#ArialMT-33"/>
     </g>
    </g>
    <g id="line2d_28">
     <path d="M 785.346594 114.572969 
L 796.346594 114.572969 
L 807.346594 114.572969 
" style="fill: none"/>
    </g>
    <g id="text_28">
     <!-- index -->
     <g style="fill: #262626" transform="translate(816.146594 118.422969) scale(0.11 -0.11)">
      <defs>
       <path id="ArialMT-6e" d="M 422 0 
L 422 3319 
L 928 3319 
L 928 2847 
Q 1294 3394 1984 3394 
Q 2284 3394 2536 3286 
Q 2788 3178 2913 3003 
Q 3038 2828 3088 2588 
Q 3119 2431 3119 2041 
L 3119 0 
L 2556 0 
L 2556 2019 
Q 2556 2363 2490 2533 
Q 2425 2703 2258 2804 
Q 2091 2906 1866 2906 
Q 1506 2906 1245 2678 
Q 984 2450 984 1813 
L 984 0 
L 422 0 
z
" transform="scale(0.015625)"/>
       <path id="ArialMT-78" d="M 47 0 
L 1259 1725 
L 138 3319 
L 841 3319 
L 1350 2541 
Q 1494 2319 1581 2169 
Q 1719 2375 1834 2534 
L 2394 3319 
L 3066 3319 
L 1919 1756 
L 3153 0 
L 2463 0 
L 1781 1031 
L 1600 1309 
L 728 0 
L 47 0 
z
" transform="scale(0.015625)"/>
      </defs>
      <use xlink:href="#ArialMT-69"/>
      <use xlink:href="#ArialMT-6e" transform="translate(22.216797 0)"/>
      <use xlink:href="#ArialMT-64" transform="translate(77.832031 0)"/>
      <use xlink:href="#ArialMT-65" transform="translate(133.447266 0)"/>
      <use xlink:href="#ArialMT-78" transform="translate(189.0625 0)"/>
     </g>
    </g>
    <g id="line2d_29">
     <path d="M 785.346594 130.132812 
L 796.346594 130.132812 
L 807.346594 130.132812 
" style="fill: none; stroke: #333333; stroke-width: 1.5; stroke-linecap: round"/>
     <defs>
      <path id="m9b60185ba4" d="M 0 3 
C 0.795609 3 1.55874 2.683901 2.12132 2.12132 
C 2.683901 1.55874 3 0.795609 3 0 
C 3 -0.795609 2.683901 -1.55874 2.12132 -2.12132 
C 1.55874 -2.683901 0.795609 -3 0 -3 
C -0.795609 -3 -1.55874 -2.683901 -2.12132 -2.12132 
C -2.683901 -1.55874 -3 -0.795609 -3 0 
C -3 0.795609 -2.683901 1.55874 -2.12132 2.12132 
C -1.55874 2.683901 -0.795609 3 0 3 
z
" style="stroke: #ffffff; stroke-width: 0.75"/>
     </defs>
     <g>
      <use xlink:href="#m9b60185ba4" x="796.346594" y="130.132812" style="fill: #333333; stroke: #ffffff; stroke-width: 0.75"/>
     </g>
    </g>
    <g id="text_29">
     <!-- 0 -->
     <g style="fill: #262626" transform="translate(816.146594 133.982812) scale(0.11 -0.11)">
      <use xlink:href="#ArialMT-30"/>
     </g>
    </g>
    <g id="line2d_30">
     <path d="M 785.346594 145.692656 
L 796.346594 145.692656 
L 807.346594 145.692656 
" style="fill: none; stroke: #333333; stroke-width: 1.5; stroke-linecap: round"/>
     <defs>
      <path id="mccec9c9289" d="M -1.5 3 
L 0 1.5 
L 1.5 3 
L 3 1.5 
L 1.5 0 
L 3 -1.5 
L 1.5 -3 
L 0 -1.5 
L -1.5 -3 
L -3 -1.5 
L -1.5 0 
L -3 1.5 
z
" style="stroke: #ffffff; stroke-width: 0.75; stroke-linejoin: miter"/>
     </defs>
     <g>
      <use xlink:href="#mccec9c9289" x="796.346594" y="145.692656" style="fill: #333333; stroke: #ffffff; stroke-width: 0.75; stroke-linejoin: miter"/>
     </g>
    </g>
    <g id="text_30">
     <!-- 1 -->
     <g style="fill: #262626" transform="translate(816.146594 149.542656) scale(0.11 -0.11)">
      <use xlink:href="#ArialMT-31"/>
     </g>
    </g>
    <g id="line2d_31">
     <path d="M 785.346594 161.2525 
L 796.346594 161.2525 
L 807.346594 161.2525 
" style="fill: none; stroke: #333333; stroke-width: 1.5; stroke-linecap: round"/>
     <defs>
      <path id="m4145825a9f" d="M -2.12132 -2.12132 
L -2.12132 2.12132 
L 2.12132 2.12132 
L 2.12132 -2.12132 
z
" style="stroke: #ffffff; stroke-width: 0.75; stroke-linejoin: miter"/>
     </defs>
     <g>
      <use xlink:href="#m4145825a9f" x="796.346594" y="161.2525" style="fill: #333333; stroke: #ffffff; stroke-width: 0.75; stroke-linejoin: miter"/>
     </g>
    </g>
    <g id="text_31">
     <!-- 2 -->
     <g style="fill: #262626" transform="translate(816.146594 165.1025) scale(0.11 -0.11)">
      <use xlink:href="#ArialMT-32"/>
     </g>
    </g>
    <g id="line2d_32">
     <path d="M 785.346594 176.812344 
L 796.346594 176.812344 
L 807.346594 176.812344 
" style="fill: none; stroke: #333333; stroke-width: 1.5; stroke-linecap: round"/>
     <defs>
      <path id="m293bf3fdd5" d="M -1 3 
L 1 3 
L 1 1 
L 3 1 
L 3 -1 
L 1 -1 
L 1 -3 
L -1 -3 
L -1 -1 
L -3 -1 
L -3 1 
L -1 1 
z
" style="stroke: #ffffff; stroke-width: 0.75; stroke-linejoin: miter"/>
     </defs>
     <g>
      <use xlink:href="#m293bf3fdd5" x="796.346594" y="176.812344" style="fill: #333333; stroke: #ffffff; stroke-width: 0.75; stroke-linejoin: miter"/>
     </g>
    </g>
    <g id="text_32">
     <!-- 3 -->
     <g style="fill: #262626" transform="translate(816.146594 180.662344) scale(0.11 -0.11)">
      <use xlink:href="#ArialMT-33"/>
     </g>
    </g>
    <g id="line2d_33">
     <path d="M 785.346594 192.372187 
L 796.346594 192.372187 
L 807.346594 192.372187 
" style="fill: none; stroke: #333333; stroke-width: 1.5; stroke-linecap: round"/>
     <defs>
      <path id="m9383d4ddf7" d="M 0 -3 
L -3 -0 
L -0 3 
L 3 0 
z
" style="stroke: #ffffff; stroke-width: 0.75; stroke-linejoin: miter"/>
     </defs>
     <g>
      <use xlink:href="#m9383d4ddf7" x="796.346594" y="192.372187" style="fill: #333333; stroke: #ffffff; stroke-width: 0.75; stroke-linejoin: miter"/>
     </g>
    </g>
    <g id="text_33">
     <!-- 4 -->
     <g style="fill: #262626" transform="translate(816.146594 196.222187) scale(0.11 -0.11)">
      <use xlink:href="#ArialMT-34"/>
     </g>
    </g>
    <g id="line2d_34">
     <path d="M 785.346594 207.932031 
L 796.346594 207.932031 
L 807.346594 207.932031 
" style="fill: none; stroke: #333333; stroke-width: 1.5; stroke-linecap: round"/>
     <defs>
      <path id="m7d244b693d" d="M 0 -3 
L -1.06066 -1.06066 
L -3 -0 
L -1.06066 1.06066 
L -0 3 
L 1.06066 1.06066 
L 3 0 
L 1.06066 -1.06066 
z
" style="stroke: #ffffff; stroke-width: 0.75; stroke-linejoin: bevel"/>
     </defs>
     <g>
      <use xlink:href="#m7d244b693d" x="796.346594" y="207.932031" style="fill: #333333; stroke: #ffffff; stroke-width: 0.75; stroke-linejoin: bevel"/>
     </g>
    </g>
    <g id="text_34">
     <!-- 5 -->
     <g style="fill: #262626" transform="translate(816.146594 211.782031) scale(0.11 -0.11)">
      <use xlink:href="#ArialMT-35"/>
     </g>
    </g>
    <g id="line2d_35">
     <path d="M 785.346594 223.491875 
L 796.346594 223.491875 
L 807.346594 223.491875 
" style="fill: none; stroke: #333333; stroke-width: 1.5; stroke-linecap: round"/>
     <defs>
      <path id="m94aa1ef8dd" d="M 0 -3 
L -3 3 
L 3 3 
z
" style="stroke: #ffffff; stroke-width: 0.75; stroke-linejoin: miter"/>
     </defs>
     <g>
      <use xlink:href="#m94aa1ef8dd" x="796.346594" y="223.491875" style="fill: #333333; stroke: #ffffff; stroke-width: 0.75; stroke-linejoin: miter"/>
     </g>
    </g>
    <g id="text_35">
     <!-- 6 -->
     <g style="fill: #262626" transform="translate(816.146594 227.341875) scale(0.11 -0.11)">
      <use xlink:href="#ArialMT-36"/>
     </g>
    </g>
    <g id="line2d_36">
     <path d="M 785.346594 239.051719 
L 796.346594 239.051719 
L 807.346594 239.051719 
" style="fill: none; stroke: #333333; stroke-width: 1.5; stroke-linecap: round"/>
     <defs>
      <path id="ma9ba847a9f" d="M -2.12132 -2.12132 
L -1.5 -0 
L -2.12132 2.12132 
L -0 1.5 
L 2.12132 2.12132 
L 1.5 0 
L 2.12132 -2.12132 
L 0 -1.5 
z
" style="stroke: #ffffff; stroke-width: 0.75; stroke-linejoin: bevel"/>
     </defs>
     <g>
      <use xlink:href="#ma9ba847a9f" x="796.346594" y="239.051719" style="fill: #333333; stroke: #ffffff; stroke-width: 0.75; stroke-linejoin: bevel"/>
     </g>
    </g>
    <g id="text_36">
     <!-- 7 -->
     <g style="fill: #262626" transform="translate(816.146594 242.901719) scale(0.11 -0.11)">
      <use xlink:href="#ArialMT-37"/>
     </g>
    </g>
    <g id="line2d_37">
     <path d="M 785.346594 254.611562 
L 796.346594 254.611562 
L 807.346594 254.611562 
" style="fill: none; stroke: #333333; stroke-width: 1.5; stroke-linecap: round"/>
     <defs>
      <path id="m38c8513af7" d="M -0 3 
L 3 -3 
L -3 -3 
z
" style="stroke: #ffffff; stroke-width: 0.75; stroke-linejoin: miter"/>
     </defs>
     <g>
      <use xlink:href="#m38c8513af7" x="796.346594" y="254.611562" style="fill: #333333; stroke: #ffffff; stroke-width: 0.75; stroke-linejoin: miter"/>
     </g>
    </g>
    <g id="text_37">
     <!-- 8 -->
     <g style="fill: #262626" transform="translate(816.146594 258.461562) scale(0.11 -0.11)">
      <use xlink:href="#ArialMT-38"/>
     </g>
    </g>
   </g>
  </g>
 </g>
 <defs>
  <clipPath id="p997a4eefdd">
   <rect x="44.216094" y="21.935625" width="696.41" height="480.727656"/>
  </clipPath>
 </defs>
</svg>
